<svg width="40" height="40" viewBox="0 0 40 40" fill="none" xmlns="http://www.w3.org/2000/svg">
<path fill-rule="evenodd" clip-rule="evenodd" d="M20 8.75C20.3315 8.75 20.6495 8.8817 20.8839 9.11612C21.1183 9.35054 21.25 9.66848 21.25 10V20C21.25 20.3315 21.1183 20.6495 20.8839 20.8839C20.6495 21.1183 20.3315 21.25 20 21.25H10C9.66848 21.25 9.35054 21.1183 9.11612 20.8839C8.8817 20.6495 8.75 20.3315 8.75 20C8.75 19.6685 8.8817 19.3505 9.11612 19.1161C9.35054 18.8817 9.66848 18.75 10 18.75H18.75V10C18.75 9.66848 18.8817 9.35054 19.1161 9.11612C19.3505 8.8817 19.6685 8.75 20 8.75Z" fill="white"/>
<path fill-rule="evenodd" clip-rule="evenodd" d="M18.75 20C18.75 19.6685 18.8817 19.3505 19.1161 19.1161C19.3505 18.8817 19.6685 18.75 20 18.75H30C30.3315 18.75 30.6495 18.8817 30.8839 19.1161C31.1183 19.3505 31.25 19.6685 31.25 20C31.25 20.3315 31.1183 20.6495 30.8839 20.8839C30.6495 21.1183 30.3315 21.25 30 21.25H21.25V30C21.25 30.3315 21.1183 30.6495 20.8839 30.8839C20.6495 31.1183 20.3315 31.25 20 31.25C19.6685 31.25 19.3505 31.1183 19.1161 30.8839C18.8817 30.6495 18.75 30.3315 18.75 30V20Z" fill="white"/>
</svg>
