<svg width="40" height="40" viewBox="0 0 40 40" fill="none" xmlns="http://www.w3.org/2000/svg">
<g clip-path="url(#clip0)">
<path fill-rule="evenodd" clip-rule="evenodd" d="M20.465 2.78228C20.1665 2.66266 19.8335 2.66266 19.535 2.78228L4.615 8.74978L10.625 11.1523L26.01 4.99978L20.465 2.78228ZM29.375 6.34728L13.99 12.4998L20 14.9023L35.385 8.74978L29.375 6.34728ZM37.5 10.5973L21.25 17.0973V36.9023L37.5 30.4023V10.5998V10.5973ZM18.75 36.9048V17.0948L2.5 10.5973V30.4048L18.75 36.9048ZM18.6075 0.459777C19.5014 0.102275 20.4986 0.102275 21.3925 0.459777L39.215 7.58978C39.4467 7.68264 39.6453 7.84276 39.7852 8.0495C39.9251 8.25624 39.9999 8.50014 40 8.74978V30.4048C39.9997 30.9043 39.8497 31.3923 39.5694 31.8059C39.2891 32.2194 38.8914 32.5394 38.4275 32.7248L20.465 39.9098C20.1665 40.0294 19.8335 40.0294 19.535 39.9098L1.575 32.7248C1.11063 32.5398 0.712356 32.2199 0.431605 31.8064C0.150854 31.3928 0.000515823 30.9046 0 30.4048L0 8.74978C5.80999e-05 8.50014 0.0748594 8.25624 0.214768 8.0495C0.354676 7.84276 0.553282 7.68264 0.785 7.58978L18.6075 0.459777Z" fill="#32BEB9"/>
</g>
<defs>
<clipPath id="clip0">
<rect width="40" height="40" fill="white"/>
</clipPath>
</defs>
</svg>
