<svg width="20" height="20" viewBox="0 0 20 20" fill="none" xmlns="http://www.w3.org/2000/svg">
<path d="M6.875 6.68726C7.04076 6.68726 7.19973 6.75131 7.31694 6.86532C7.43415 6.97933 7.5 7.13397 7.5 7.2952V14.5906C7.5 14.7518 7.43415 14.9064 7.31694 15.0204C7.19973 15.1345 7.04076 15.1985 6.875 15.1985C6.70924 15.1985 6.55027 15.1345 6.43306 15.0204C6.31585 14.9064 6.25 14.7518 6.25 14.5906V7.2952C6.25 7.13397 6.31585 6.97933 6.43306 6.86532C6.55027 6.75131 6.70924 6.68726 6.875 6.68726ZM10 6.68726C10.1658 6.68726 10.3247 6.75131 10.4419 6.86532C10.5592 6.97933 10.625 7.13397 10.625 7.2952V14.5906C10.625 14.7518 10.5592 14.9064 10.4419 15.0204C10.3247 15.1345 10.1658 15.1985 10 15.1985C9.83424 15.1985 9.67527 15.1345 9.55806 15.0204C9.44085 14.9064 9.375 14.7518 9.375 14.5906V7.2952C9.375 7.13397 9.44085 6.97933 9.55806 6.86532C9.67527 6.75131 9.83424 6.68726 10 6.68726ZM13.75 7.2952C13.75 7.13397 13.6842 6.97933 13.5669 6.86532C13.4497 6.75131 13.2908 6.68726 13.125 6.68726C12.9592 6.68726 12.8003 6.75131 12.6831 6.86532C12.5658 6.97933 12.5 7.13397 12.5 7.2952V14.5906C12.5 14.7518 12.5658 14.9064 12.6831 15.0204C12.8003 15.1345 12.9592 15.1985 13.125 15.1985C13.2908 15.1985 13.4497 15.1345 13.5669 15.0204C13.6842 14.9064 13.75 14.7518 13.75 14.5906V7.2952Z" fill="#272727"/>
<path fill-rule="evenodd" clip-rule="evenodd" d="M18.125 3.64768C18.125 3.97016 17.9933 4.27942 17.7589 4.50745C17.5245 4.73547 17.2065 4.86357 16.875 4.86357H16.25V15.8066C16.25 16.4516 15.9866 17.0701 15.5178 17.5261C15.0489 17.9822 14.413 18.2384 13.75 18.2384H6.25C5.58696 18.2384 4.95107 17.9822 4.48223 17.5261C4.01339 17.0701 3.75 16.4516 3.75 15.8066V4.86357H3.125C2.79348 4.86357 2.47554 4.73547 2.24112 4.50745C2.0067 4.27942 1.875 3.97016 1.875 3.64768V2.43179C1.875 2.10931 2.0067 1.80004 2.24112 1.57202C2.47554 1.344 2.79348 1.21589 3.125 1.21589H7.5C7.5 0.893419 7.6317 0.584151 7.86612 0.356127C8.10054 0.128103 8.41848 0 8.75 0L11.25 0C11.5815 0 11.8995 0.128103 12.1339 0.356127C12.3683 0.584151 12.5 0.893419 12.5 1.21589H16.875C17.2065 1.21589 17.5245 1.344 17.7589 1.57202C17.9933 1.80004 18.125 2.10931 18.125 2.43179V3.64768ZM5.1475 4.86357L5 4.93531V15.8066C5 16.1291 5.1317 16.4384 5.36612 16.6664C5.60054 16.8944 5.91848 17.0225 6.25 17.0225H13.75C14.0815 17.0225 14.3995 16.8944 14.6339 16.6664C14.8683 16.4384 15 16.1291 15 15.8066V4.93531L14.8525 4.86357H5.1475ZM3.125 3.64768V2.43179H16.875V3.64768H3.125Z" fill="#272727"/>
</svg>
