<svg width="15" height="15" viewBox="0 0 15 15" fill="none" xmlns="http://www.w3.org/2000/svg">
  <path d="M7.5 1.35135C9.50259 1.35135 9.73979 1.35899 10.5306 1.39507C11.2619 1.42844 11.659 1.55061 11.9233 1.65332C12.2734 1.78937 12.5232 1.95191 12.7856 2.21435C13.0481 2.47679 13.2106 2.72664 13.3467 3.07671C13.4494 3.34099 13.5716 3.73812 13.6049 4.46935C13.641 5.26021 13.6486 5.49741 13.6486 7.5C13.6486 9.50259 13.641 9.73979 13.6049 10.5306C13.5716 11.2619 13.4494 11.659 13.3467 11.9233C13.2106 12.2734 13.0481 12.5232 12.7857 12.7856C12.5232 13.0481 12.2734 13.2106 11.9233 13.3467C11.659 13.4494 11.2619 13.5716 10.5306 13.6049C9.7399 13.641 9.50272 13.6486 7.5 13.6486C5.49727 13.6486 5.2601 13.641 4.46936 13.6049C3.73812 13.5716 3.34099 13.4494 3.07671 13.3467C2.72664 13.2106 2.47679 13.0481 2.21436 12.7857C1.95191 12.5232 1.78937 12.2734 1.65332 11.9233C1.55061 11.659 1.42844 11.2619 1.39507 10.5306C1.35899 9.73979 1.35135 9.50259 1.35135 7.5C1.35135 5.49741 1.35899 5.26021 1.39507 4.46936C1.42844 3.73812 1.55061 3.34099 1.65332 3.07671C1.78937 2.72664 1.95191 2.47679 2.21435 2.21436C2.47679 1.95191 2.72664 1.78937 3.07671 1.65332C3.34099 1.55061 3.73812 1.42844 4.46935 1.39507C5.26021 1.35899 5.49741 1.35135 7.5 1.35135ZM7.5 0C5.46312 0 5.20771 0.008627 4.40776 0.0451244C3.60946 0.0815513 3.06428 0.208335 2.58721 0.393741C2.09402 0.585405 1.67576 0.841849 1.2588 1.2588C0.841849 1.67576 0.585405 2.09402 0.393741 2.58721C0.208335 3.06428 0.0815513 3.60946 0.0451244 4.40776C0.008627 5.20771 0 5.46311 0 7.5C0 9.53688 0.008627 9.79229 0.0451244 10.5922C0.0815513 11.3905 0.208335 11.9357 0.393741 12.4128C0.585405 12.906 0.841849 13.3242 1.2588 13.7412C1.67576 14.1582 2.09402 14.4146 2.58721 14.6063C3.06428 14.7917 3.60946 14.9184 4.40776 14.9549C5.20771 14.9914 5.46312 15 7.5 15C9.53688 15 9.79229 14.9914 10.5922 14.9549C11.3905 14.9184 11.9357 14.7917 12.4128 14.6063C12.906 14.4146 13.3242 14.1582 13.7412 13.7412C14.1582 13.3242 14.4146 12.906 14.6063 12.4128C14.7917 11.9357 14.9184 11.3905 14.9549 10.5922C14.9914 9.79229 15 9.53688 15 7.5C15 5.46312 14.9914 5.20771 14.9549 4.40776C14.9184 3.60946 14.7917 3.06428 14.6063 2.58721C14.4146 2.09402 14.1582 1.67576 13.7412 1.2588C13.3242 0.841849 12.906 0.585406 12.4128 0.393741C11.9357 0.208335 11.3905 0.0815513 10.5922 0.0451244C9.79229 0.008627 9.53688 0 7.5 0Z" fill="#57C4C1"/>
  <path d="M7.49979 3.64865C5.37275 3.64865 3.64844 5.37296 3.64844 7.5C3.64844 9.62705 5.37275 11.3514 7.49979 11.3514C9.62683 11.3514 11.3511 9.62705 11.3511 7.5C11.3511 5.37296 9.62683 3.64865 7.49979 3.64865ZM7.49979 10C6.11908 10 4.99979 8.88071 4.99979 7.5C4.99979 6.11929 6.11908 5 7.49979 5C8.8805 5 9.99979 6.11929 9.99979 7.5C9.99979 8.88072 8.8805 10 7.49979 10Z" fill="#57C4C1"/>
  <path d="M11.5035 4.39647C12.0006 4.39647 12.4035 3.99352 12.4035 3.49647C12.4035 2.99941 12.0006 2.59647 11.5035 2.59647C11.0065 2.59647 10.6035 2.99941 10.6035 3.49647C10.6035 3.99352 11.0065 4.39647 11.5035 4.39647Z" fill="#57C4C1"/>
</svg>
