<svg width="15" height="15" viewBox="0 0 15 15" fill="none" xmlns="http://www.w3.org/2000/svg">
  <g clip-path="url(#clip0)">
    <path fill-rule="evenodd" clip-rule="evenodd" d="M9.06445 0.81L7.49977 0L5.93508 0.81L4.1932 1.07438L3.40383 2.64937L2.15039 3.88687L2.43727 5.625L2.15039 7.36312L3.40383 8.60063L4.1932 10.1756L5.93508 10.44L7.49977 11.25L9.06445 10.44L10.8063 10.1756L11.5957 8.60063L12.8491 7.36312L12.5623 5.625L12.8491 3.88687L11.5957 2.64937L10.8063 1.07438L9.06445 0.81ZM10.1857 1.92844L8.77008 1.71375L7.49977 1.05563L6.22945 1.71375L4.81383 1.92844L4.17258 3.20812L3.15445 4.21312L3.38789 5.625L3.15352 7.03688L4.17258 8.04187L4.81383 9.32156L6.22945 9.53625L7.49977 10.1944L8.77102 9.53625L10.1857 9.32156L10.827 8.04187L11.8451 7.03688L11.6126 5.625L11.8451 4.21312L10.827 3.20812L10.1857 1.92844Z" fill="#57C4C1"/>
    <path d="M3.75 11.0577V15.0008L7.5 14.0633L11.25 15.0008V11.0577L9.35813 11.3446L7.5 12.3064L5.64188 11.3446L3.75 11.0577Z" fill="#57C4C1"/>
  </g>
  <defs>
    <clipPath id="clip0">
      <rect width="15" height="15" fill="white"/>
    </clipPath>
  </defs>
</svg>
