<svg width="15" height="15" viewBox="0 0 15 15" fill="none" xmlns="http://www.w3.org/2000/svg">
  <path d="M15 8.9501C14.9991 8.52502 14.8272 8.11818 14.523 7.82128C14.7391 7.54711 14.8574 7.20854 14.8589 6.85942C14.8596 6.44619 14.6942 6.05001 14.4 5.75991C14.0904 5.44791 13.6698 5.27125 13.2303 5.26858H9.82917L10.0483 3.84913C10.0757 3.6687 10.0895 3.48647 10.0895 3.30397C10.0895 1.9002 9.1416 0.267792 7.91942 0.267792C7.56508 0.268035 7.22201 0.392318 6.94973 0.619078L6.82366 0.72402L7.00117 3.05695C7.01657 3.25503 6.96886 3.45291 6.86488 3.62221L4.99568 7.08668L4.92583 7.14665C4.87827 6.82563 4.60298 6.58772 4.27846 6.58718H0.654528C0.293198 6.58756 0.000375375 6.88038 0 7.24171V14.0776C0.000375375 14.439 0.293198 14.7318 0.654528 14.7322H4.2788C4.63973 14.7312 4.93193 14.4386 4.9323 14.0776V13.7332L4.93742 13.7373C5.60523 14.3052 6.46794 14.3117 6.50474 14.3117L11.9512 14.3097H11.9686C12.8386 14.2625 13.5056 13.519 13.4584 12.649C13.4532 12.5525 13.4391 12.4567 13.4163 12.3628C14.2132 12.0197 14.5841 11.0981 14.247 10.2987C14.7167 10.0119 15.0023 9.50043 15 8.9501ZM13.7022 9.85028L13.2701 9.98487L13.5427 10.346C13.856 10.7598 13.7746 11.3492 13.3608 11.6625C13.2393 11.7545 13.0972 11.8156 12.9468 11.8404L12.5148 11.9127L12.7168 12.3014C12.9559 12.7623 12.776 13.3297 12.3152 13.5688C12.199 13.629 12.0716 13.6644 11.941 13.6725L6.50679 13.6749C6.49077 13.6749 5.83352 13.662 5.35174 13.2521C5.26109 13.1722 5.15956 13.1057 5.0502 13.0544L4.9323 13.0016V7.97869L5.49893 7.49419L7.4114 3.95067C7.58235 3.66888 7.66064 3.34058 7.63526 3.01198L7.48398 1.02318C7.61636 0.947794 7.76606 0.908109 7.9184 0.908011C8.74397 0.908011 9.45165 2.22729 9.45165 3.30704C9.45161 3.45692 9.44022 3.60659 9.41758 3.75475L9.08538 5.90812H13.2316C13.5014 5.91043 13.7594 6.01931 13.9492 6.21102C14.1232 6.38154 14.2214 6.61479 14.2218 6.8584C14.2201 7.15132 14.0814 7.42657 13.847 7.6022L13.4616 7.89454L13.8824 8.13304C14.3358 8.38875 14.496 8.96356 14.2403 9.41691C14.1225 9.62571 13.9296 9.78177 13.7008 9.85335L13.7022 9.85028Z" fill="#57C4C1"/>
</svg>
