<svg width="15" height="15" viewBox="0 0 15 15" fill="none" xmlns="http://www.w3.org/2000/svg">
  <g clip-path="url(#clip0)">
   <path fill-rule="evenodd" clip-rule="evenodd" d="M14.8284 0.574522C14.8821 0.618524 14.9253 0.673896 14.955 0.736639C14.9847 0.799382 15 0.86793 15 0.937334V13.1248C14.9999 13.2332 14.9624 13.3381 14.8936 13.4219C14.8249 13.5056 14.7293 13.563 14.6231 13.5842L9.93563 14.5217C9.87497 14.5338 9.81253 14.5338 9.75187 14.5217L5.15625 13.603L0.560625 14.5217C0.492646 14.5353 0.422499 14.5336 0.355238 14.5169C0.287977 14.5001 0.225277 14.4686 0.171656 14.4246C0.118034 14.3807 0.074825 14.3254 0.0451423 14.2628C0.0154595 14.2001 4.18619e-05 14.1317 0 14.0623L0 1.87483C6.54207e-05 1.76651 0.0376464 1.66155 0.106353 1.5778C0.17506 1.49406 0.270652 1.43669 0.376875 1.41546L5.06437 0.477959C5.12503 0.465837 5.18747 0.465837 5.24813 0.477959L9.84375 1.39671L14.4394 0.477959C14.5073 0.464286 14.5775 0.465855 14.6447 0.482553C14.712 0.49925 14.7748 0.530661 14.8284 0.574522ZM9.375 2.25921L5.625 1.50921V12.7405L9.375 13.4905V2.25921ZM10.3125 13.4905L14.0625 12.7405V1.50921L10.3125 2.25921V13.4905ZM4.6875 12.7405V1.50921L0.9375 2.25921V13.4905L4.6875 12.7405Z" fill="#57C4C1"/>
  </g>
  <defs>
    <clipPath id="clip0">
      <rect width="15" height="15" fill="white"/>
    </clipPath>
  </defs>
</svg>
