<svg width="15" height="15" viewBox="0 0 15 15" fill="none" xmlns="http://www.w3.org/2000/svg">
  <g clip-path="url(#clip0)">
    <path fill-rule="evenodd" clip-rule="evenodd" d="M13.125 2.8125H1.875C1.62636 2.8125 1.3879 2.91127 1.21209 3.08709C1.03627 3.2629 0.9375 3.50136 0.9375 3.75V11.25C0.9375 11.4986 1.03627 11.7371 1.21209 11.9129C1.3879 12.0887 1.62636 12.1875 1.875 12.1875H13.125C13.3736 12.1875 13.6121 12.0887 13.7879 11.9129C13.9637 11.7371 14.0625 11.4986 14.0625 11.25V3.75C14.0625 3.50136 13.9637 3.2629 13.7879 3.08709C13.6121 2.91127 13.3736 2.8125 13.125 2.8125ZM1.875 1.875C1.37772 1.875 0.900806 2.07254 0.549175 2.42417C0.197544 2.77581 0 3.25272 0 3.75L0 11.25C0 11.7473 0.197544 12.2242 0.549175 12.5758C0.900806 12.9275 1.37772 13.125 1.875 13.125H13.125C13.6223 13.125 14.0992 12.9275 14.4508 12.5758C14.8025 12.2242 15 11.7473 15 11.25V3.75C15 3.25272 14.8025 2.77581 14.4508 2.42417C14.0992 2.07254 13.6223 1.875 13.125 1.875H1.875Z" fill="#57C4C1"/>
    <path d="M0.046875 3.33255C0.0159375 3.46661 0 3.6063 0 3.74974V4.40318L5.44031 7.72755L0 11.0632V11.2497C0 11.5366 0.0646875 11.8085 0.18 12.0522L6.33938 8.27693L7.5 8.98661L8.66156 8.27693L14.8209 12.0522C14.9353 11.8085 15 11.5366 15 11.2497V11.0622L9.55969 7.72755L15 4.40318V3.74974C15 3.6063 14.9841 3.46661 14.9531 3.33255L7.5 7.88786L0.046875 3.33255Z" fill="#57C4C1"/>
  </g>
  <defs>
    <clipPath id="clip0">
      <rect width="15" height="15" fill="white"/>
    </clipPath>
  </defs>
</svg>
