<svg width="15" height="15" viewBox="0 0 15 15" fill="none" xmlns="http://www.w3.org/2000/svg">
  <path d="M13.125 15H1.875C0.84 15 0 14.16 0 13.125V1.875C0 0.84 0.84 0 1.875 0H13.125C14.16 0 15 0.84 15 1.875V13.125C15 14.16 14.16 15 13.125 15ZM5.76 11.31C9.29625 11.31 11.2312 8.3775 11.2312 5.83875C11.2312 5.75625 11.2312 5.67375 11.2275 5.59125C11.6025 5.32125 11.9288 4.98 12.1875 4.59375C11.8425 4.7475 11.4712 4.84875 11.0812 4.8975C11.4788 4.66125 11.7825 4.2825 11.9288 3.8325C11.5575 4.05375 11.145 4.21125 10.7062 4.2975C10.3538 3.9225 9.855 3.69 9.30375 3.69C8.2425 3.69 7.38 4.5525 7.38 5.61375C7.38 5.76375 7.39875 5.91 7.42875 6.0525C5.83125 5.97375 4.41375 5.205 3.465 4.0425C3.3 4.3275 3.20625 4.6575 3.20625 5.01C3.20625 5.6775 3.5475 6.26625 4.06125 6.61125C3.74625 6.6 3.45 6.51375 3.19125 6.37125C3.19125 6.37875 3.19125 6.38625 3.19125 6.3975C3.19125 7.3275 3.855 8.1075 4.7325 8.28375C4.57125 8.32875 4.4025 8.35125 4.22625 8.35125C4.1025 8.35125 3.9825 8.34 3.86625 8.3175C4.11 9.0825 4.8225 9.6375 5.6625 9.6525C5.0025 10.17 4.17375 10.4775 3.27375 10.4775C3.12 10.4775 2.96625 10.47 2.81625 10.4513C3.66375 10.9913 4.67625 11.31 5.76 11.31Z" fill="#57C4C1"/>
</svg>
